<?xml version="1.0" encoding="UTF-8" standalone="no"?>
<!DOCTYPE svg PUBLIC "-//W3C//DTD SVG 1.1//EN" "http://www.w3.org/Graphics/SVG/1.1/DTD/svg11.dtd">
<svg version="1.1" xmlns="http://www.w3.org/2000/svg" xmlns:xlink="http://www.w3.org/1999/xlink" preserveAspectRatio="none" viewBox="-1 -1 644 181.50797803689235" width="1920" height="532.52"><defs><path d="M57.26 177.51L27.41 81.11L192.84 29.26L128.12 177.51L57.26 177.51Z" id="jFZg6QPJ"></path><linearGradient id="gradientb3orNbLhaE" gradientUnits="userSpaceOnUse" x1="171.68" y1="7.39" x2="106.54" y2="211.68"><stop style="stop-color: #223d6b;stop-opacity: 1" offset="0%"></stop><stop style="stop-color: #182d50;stop-opacity: 1" offset="100%"></stop></linearGradient><path d="M125.27 177.51L183.58 34.17L289.87 177.51L125.27 177.51Z" id="a13rkHdb7Y"></path><linearGradient id="gradientdfcP4FR7O" gradientUnits="userSpaceOnUse" x1="220.74" y1="177.51" x2="110.12" y2="-11.29"><stop style="stop-color: #223d6b;stop-opacity: 1" offset="0%"></stop><stop style="stop-color: #192f54;stop-opacity: 1" offset="100%"></stop></linearGradient><path d="M0 177.51L0 74.58L29.35 49.84L62.24 177.51L0 177.51Z" id="cnIpz8KLn"></path><linearGradient id="gradientajMKTtzYx" gradientUnits="userSpaceOnUse" x1="38.8" y1="191.43" x2="-31.29" y2="75.48"><stop style="stop-color: #223d6b;stop-opacity: 1" offset="0%"></stop><stop style="stop-color: #1a2f51;stop-opacity: 1" offset="100%"></stop></linearGradient><path d="M556 177.51L442.01 177.51L358.97 49.07L605.77 0L640 0L640 20.7L556 177.51Z" id="b2YCCrRiMV"></path><linearGradient id="gradiente5j3scfQU" gradientUnits="userSpaceOnUse" x1="357.85" y1="99.31" x2="761.09" y2="47.02"><stop style="stop-color: #223d6b;stop-opacity: 1" offset="0%"></stop><stop style="stop-color: #223d6b;stop-opacity: 1" offset="67.7092393835002%"></stop><stop style="stop-color: #010000;stop-opacity: 1" offset="100%"></stop></linearGradient><path d="M439.1 143.5L371.85 0L640 0L640 2.72L439.1 143.5Z" id="b1fOtoUqCP"></path><linearGradient id="gradientbhFhMYZM2" gradientUnits="userSpaceOnUse" x1="510.98" y1="119.83" x2="401.3" y2="-44.73"><stop style="stop-color: #223d6b;stop-opacity: 1" offset="0%"></stop><stop style="stop-color: #192f51;stop-opacity: 1" offset="100%"></stop></linearGradient><path d="" id="c1d757vx5"></path><path d="M353.43 177.51L352.21 0L395.51 0L467.32 177.51L353.43 177.51Z" id="bDlhdOsJh"></path><linearGradient id="gradientahbeVxaP7" gradientUnits="userSpaceOnUse" x1="477.92" y1="-8.44" x2="409.76" y2="248.37"><stop style="stop-color: #223d6b;stop-opacity: 1" offset="0%"></stop><stop style="stop-color: #1a3056;stop-opacity: 1" offset="100%"></stop></linearGradient><path d="M263.04 177.51L152.08 55.32L309.53 0L394.71 0L373.34 177.51L263.04 177.51Z" id="avoAZLBJW"></path><linearGradient id="gradientcV63aQnh5" gradientUnits="userSpaceOnUse" x1="139.53" y1="83.22" x2="433.89" y2="24.32"><stop style="stop-color: #223d6b;stop-opacity: 1" offset="0%"></stop><stop style="stop-color: #1a2e51;stop-opacity: 1" offset="100%"></stop></linearGradient><path d="M547.25 177.51L638.66 0L640 0L640 177.51L547.25 177.51Z" id="c2ojYHh6KF"></path><linearGradient id="gradientc2RSHXS5LW" gradientUnits="userSpaceOnUse" x1="660.57" y1="114.86" x2="455.01" y2="305.61"><stop style="stop-color: #223d6b;stop-opacity: 1" offset="0%"></stop><stop style="stop-color: #182c4d;stop-opacity: 1" offset="100%"></stop></linearGradient><path d="M0 0L330.42 0L0 104.57L0 0Z" id="d10g4Ch6v3"></path><linearGradient id="gradientb1bOo8giA0" gradientUnits="userSpaceOnUse" x1="72.98" y1="-40.91" x2="286.26" y2="118.6"><stop style="stop-color: #223d6b;stop-opacity: 1" offset="0%"></stop><stop style="stop-color: #182d51;stop-opacity: 1" offset="100%"></stop></linearGradient></defs><g><g><use xlink:href="#jFZg6QPJ" opacity="1" fill="url(#gradientb3orNbLhaE)"></use></g><g><use xlink:href="#a13rkHdb7Y" opacity="1" fill="url(#gradientdfcP4FR7O)"></use></g><g><use xlink:href="#cnIpz8KLn" opacity="1" fill="url(#gradientajMKTtzYx)"></use></g><g><use xlink:href="#b2YCCrRiMV" opacity="1" fill="url(#gradiente5j3scfQU)"></use></g><g><use xlink:href="#b1fOtoUqCP" opacity="1" fill="url(#gradientbhFhMYZM2)"></use></g><g><g><use xlink:href="#c1d757vx5" opacity="1" fill-opacity="0" stroke="#000000" stroke-width="1" stroke-opacity="1"></use></g></g><g><use xlink:href="#bDlhdOsJh" opacity="1" fill="url(#gradientahbeVxaP7)"></use></g><g><use xlink:href="#avoAZLBJW" opacity="1" fill="url(#gradientcV63aQnh5)"></use></g><g><use xlink:href="#c2ojYHh6KF" opacity="1" fill="url(#gradientc2RSHXS5LW)"></use></g><g><use xlink:href="#d10g4Ch6v3" opacity="1" fill="url(#gradientb1bOo8giA0)"></use></g></g></svg>