<?xml version="1.0" encoding="UTF-8" standalone="no"?>
<!DOCTYPE svg PUBLIC "-//W3C//DTD SVG 1.1//EN" "http://www.w3.org/Graphics/SVG/1.1/DTD/svg11.dtd">
<svg version="1.1" xmlns="http://www.w3.org/2000/svg" xmlns:xlink="http://www.w3.org/1999/xlink" preserveAspectRatio="xMidYMid meet" viewBox="172.19284802043433 268.9740394600208 100.20575583337552 56.702998419883215" width="96.21" height="52.7"><defs><path d="M173.19 271.27L178.92 271.91L183.76 271.91L188.6 271.91L193.89 271.91L199.17 271.91L204.02 271.27L208.86 271.27L213.7 271.27L218.99 271.27L223.83 270.62L228.67 270.62L233.52 270.62L238.36 269.97L243.21 270.62L247.61 273.85L250.69 279.68L252.45 286.79L253.33 293.9L253.33 301.02L253.33 308.13L253.33 315.25L253.33 322.36" id="a1UECIQGML"></path><path d="M233.24 306.8L235.44 308.46L238.13 309.94L241.06 311.78L243.02 313.26L245.21 314.74L246.92 316.4L248.15 318.25L249.86 319.91L251.32 321.57L253.52 322.68L255.23 321.2L256.94 319.72L258.41 318.06L260.12 316.4L261.58 314.74L263.29 313.26L264.76 311.6L266.47 309.94L267.93 308.28L269.4 306.43" id="a3WmW3AzuZ"></path></defs><g><g><g><use xlink:href="#a1UECIQGML" opacity="1" fill-opacity="0" stroke="#6c757d" stroke-width="2" stroke-opacity="1"></use></g></g><g><g><use xlink:href="#a3WmW3AzuZ" opacity="1" fill-opacity="0" stroke="#6c757d" stroke-width="2" stroke-opacity="1"></use></g></g></g></svg>